<svg width="93" height="93" viewBox="0 0 93 93" fill="none" xmlns="http://www.w3.org/2000/svg">
<g filter="url(#filter0_d_3_11)">
<rect x="4" width="85" height="85" rx="5" fill="#FBFBFB"/>
<path d="M20.1818 32.7273L26.1818 42.4091H26.3636L32.3636 32.7273H35.6818L28.3636 44.3636L35.6818 56H32.3636L26.3636 46.5H26.1818L20.1818 56H16.8636L24.3636 44.3636L16.8636 32.7273H20.1818ZM40.7131 32.7273L46.7131 42.4091H46.8949L52.8949 32.7273H56.2131L48.8949 44.3636L56.2131 56H52.8949L46.8949 46.5H46.7131L40.7131 56H37.3949L44.8949 44.3636L37.3949 32.7273H40.7131ZM59.8807 56V32.7273H62.6989V53.5H73.517V56H59.8807Z" fill="black" fill-opacity="0.85"/>
</g>
<defs>
<filter id="filter0_d_3_11" x="0" y="0" width="93" height="93" filterUnits="userSpaceOnUse" color-interpolation-filters="sRGB">
<feFlood flood-opacity="0" result="BackgroundImageFix"/>
<feColorMatrix in="SourceAlpha" type="matrix" values="0 0 0 0 0 0 0 0 0 0 0 0 0 0 0 0 0 0 127 0" result="hardAlpha"/>
<feOffset dy="4"/>
<feGaussianBlur stdDeviation="2"/>
<feComposite in2="hardAlpha" operator="out"/>
<feColorMatrix type="matrix" values="0 0 0 0 0 0 0 0 0 0 0 0 0 0 0 0 0 0 0.25 0"/>
<feBlend mode="normal" in2="BackgroundImageFix" result="effect1_dropShadow_3_11"/>
<feBlend mode="normal" in="SourceGraphic" in2="effect1_dropShadow_3_11" result="shape"/>
</filter>
</defs>
</svg>
